<!DOCTYPE svg PUBLIC "-//W3C//DTD SVG 1.1//EN" "http://www.w3.org/Graphics/SVG/1.1/DTD/svg11.dtd">
<svg version="1.1" xmlns="http://www.w3.org/2000/svg" xmlns:xlink="http://www.w3.org/1999/xlink" width="100%" height="100%" viewBox="-125 -50 1875 2500">
 <title>Titanic casualties</title>
 <desc>Visualisation of the number of survivors and victims on the RMS Titanic by class and age/gender according to the British Board of Trade report on the disaster, by CMG Lee.</desc>
 <defs>
  <path id="dead" d="M -3.5,8 V -7 Q 0,-11 3.5,-7 V 8 Z"/>
  <g id="man">
   <path d="M -4,-2 L 0,9 L 4,-2 Z"/>
   <circle cx="0" cy="-6" r="3"/>
  </g>
  <use id="woman" xlink:href="#man"/>
  <use id="child" xlink:href="#man"/>
 <!--
  <g id="woman">
   <path d="M -4,8 L 0,-5 L 4,8 Z"/>
   <circle cx="0" cy="-6" r="3"/>
  </g>
  <g id="child">
   <path d="M -2.5,0 V 8 H 2.5 V 0 Z"/>
   <circle cx="0" cy="-3" r="2.5"/>
  </g>
  <path id="dead" d="M -4,9 V -8 Q 0,-11 4,-8 V 9 Z"/>
 -->
  <g id="d_m">
   <use xlink:href="#dead"/>
   <use xlink:href="#man" fill="#ffffff"/>
  </g>
  <g id="d_w">
   <use xlink:href="#dead"/>
   <use xlink:href="#woman" fill="#ffffff"/>
  </g>
  <g id="d_c">
   <use xlink:href="#dead"/>
   <use xlink:href="#child" fill="#ffffff"/>
  </g>
  <use id="s_m_1" xlink:href="#man"   transform="translate(-8,0)"/>
  <use id="s_w_1" xlink:href="#woman" transform="translate(-8,0)"/>
  <use id="s_c_1" xlink:href="#child" transform="translate(-8,0)"/>
  <use id="d_m_1" xlink:href="#d_m"   transform="translate(8,0)"/>
  <use id="d_w_1" xlink:href="#d_w"   transform="translate(8,0)"/>
  <use id="d_c_1" xlink:href="#d_c"   transform="translate(8,0)"/>
  <g id="s_m_5">
   <use xlink:href="#s_m_1"/>
   <use xlink:href="#s_m_1" transform="translate(-10,0)"/>
   <use xlink:href="#s_m_1" transform="translate(-20,0)"/>
   <use xlink:href="#s_m_1" transform="translate(-30,0)"/>
   <use xlink:href="#s_m_1" transform="translate(-40,0)"/>
  </g>
  <g id="s_w_5">
   <use xlink:href="#s_w_1"/>
   <use xlink:href="#s_w_1" transform="translate(-10,0)"/>
   <use xlink:href="#s_w_1" transform="translate(-20,0)"/>
   <use xlink:href="#s_w_1" transform="translate(-30,0)"/>
   <use xlink:href="#s_w_1" transform="translate(-40,0)"/>
  </g>
  <g id="s_c_5">
   <use xlink:href="#s_c_1"/>
   <use xlink:href="#s_c_1" transform="translate(-10,0)"/>
   <use xlink:href="#s_c_1" transform="translate(-20,0)"/>
   <use xlink:href="#s_c_1" transform="translate(-30,0)"/>
   <use xlink:href="#s_c_1" transform="translate(-40,0)"/>
  </g>
  <g id="d_m_5">
   <use xlink:href="#d_m_1"/>
   <use xlink:href="#d_m_1" transform="translate(10,0)"/>
   <use xlink:href="#d_m_1" transform="translate(20,0)"/>
   <use xlink:href="#d_m_1" transform="translate(30,0)"/>
   <use xlink:href="#d_m_1" transform="translate(40,0)"/>
  </g>
  <g id="d_w_5">
   <use xlink:href="#d_w_1"/>
   <use xlink:href="#d_w_1" transform="translate(10,0)"/>
   <use xlink:href="#d_w_1" transform="translate(20,0)"/>
   <use xlink:href="#d_w_1" transform="translate(30,0)"/>
   <use xlink:href="#d_w_1" transform="translate(40,0)"/>
  </g>
  <g id="d_c_5">
   <use xlink:href="#d_c_1"/>
   <use xlink:href="#d_c_1" transform="translate(10,0)"/>
   <use xlink:href="#d_c_1" transform="translate(20,0)"/>
   <use xlink:href="#d_c_1" transform="translate(30,0)"/>
   <use xlink:href="#d_c_1" transform="translate(40,0)"/>
  </g>
  <g id="s_m_20">
   <use xlink:href="#s_m_5"/>
   <use xlink:href="#s_m_5" transform="translate(-55,0)"/>
   <use xlink:href="#s_m_5" transform="translate(-110,0)"/>
   <use xlink:href="#s_m_5" transform="translate(-165,0)"/>
  </g>
  <g id="s_w_20">
   <use xlink:href="#s_w_5"/>
   <use xlink:href="#s_w_5" transform="translate(-55,0)"/>
   <use xlink:href="#s_w_5" transform="translate(-110,0)"/>
   <use xlink:href="#s_w_5" transform="translate(-165,0)"/>
  </g>
  <g id="s_c_20">
   <use xlink:href="#s_c_5"/>
   <use xlink:href="#s_c_5" transform="translate(-55,0)"/>
   <use xlink:href="#s_c_5" transform="translate(-110,0)"/>
   <use xlink:href="#s_c_5" transform="translate(-165,0)"/>
  </g>
  <g id="d_m_20">
   <use xlink:href="#d_m_5"/>
   <use xlink:href="#d_m_5" transform="translate(55,0)"/>
   <use xlink:href="#d_m_5" transform="translate(110,0)"/>
   <use xlink:href="#d_m_5" transform="translate(165,0)"/>
  </g>
  <g id="d_w_20">
   <use xlink:href="#d_w_5"/>
   <use xlink:href="#d_w_5" transform="translate(55,0)"/>
   <use xlink:href="#d_w_5" transform="translate(110,0)"/>
   <use xlink:href="#d_w_5" transform="translate(165,0)"/>
  </g>
  <g id="d_c_20">
   <use xlink:href="#d_c_5"/>
   <use xlink:href="#d_c_5" transform="translate(55,0)"/>
   <use xlink:href="#d_c_5" transform="translate(110,0)"/>
   <use xlink:href="#d_c_5" transform="translate(165,0)"/>
  </g>
  <g id="s_m_100">
   <use xlink:href="#s_m_20"/>
   <use xlink:href="#s_m_20" transform="translate(0,20)"/>
   <use xlink:href="#s_m_20" transform="translate(0,40)"/>
   <use xlink:href="#s_m_20" transform="translate(0,60)"/>
   <use xlink:href="#s_m_20" transform="translate(0,80)"/>
  </g>
  <g id="s_w_100">
   <use xlink:href="#s_w_20"/>
   <use xlink:href="#s_w_20" transform="translate(0,20)"/>
   <use xlink:href="#s_w_20" transform="translate(0,40)"/>
   <use xlink:href="#s_w_20" transform="translate(0,60)"/>
   <use xlink:href="#s_w_20" transform="translate(0,80)"/>
  </g>
  <g id="s_c_100">
   <use xlink:href="#s_c_20"/>
   <use xlink:href="#s_c_20" transform="translate(0,20)"/>
   <use xlink:href="#s_c_20" transform="translate(0,40)"/>
   <use xlink:href="#s_c_20" transform="translate(0,60)"/>
   <use xlink:href="#s_c_20" transform="translate(0,80)"/>
  </g>
  <g id="d_m_100">
   <use xlink:href="#d_m_20"/>
   <use xlink:href="#d_m_20" transform="translate(0,20)"/>
   <use xlink:href="#d_m_20" transform="translate(0,40)"/>
   <use xlink:href="#d_m_20" transform="translate(0,60)"/>
   <use xlink:href="#d_m_20" transform="translate(0,80)"/>
  </g>
  <g id="d_w_100">
   <use xlink:href="#d_w_20"/>
   <use xlink:href="#d_w_20" transform="translate(0,20)"/>
   <use xlink:href="#d_w_20" transform="translate(0,40)"/>
   <use xlink:href="#d_w_20" transform="translate(0,60)"/>
   <use xlink:href="#d_w_20" transform="translate(0,80)"/>
  </g>
  <g id="d_c_100">
   <use xlink:href="#d_c_20"/>
   <use xlink:href="#d_c_20" transform="translate(0,20)"/>
   <use xlink:href="#d_c_20" transform="translate(0,40)"/>
   <use xlink:href="#d_c_20" transform="translate(0,60)"/>
   <use xlink:href="#d_c_20" transform="translate(0,80)"/>
  </g>

  <g id="main" font-family="sans-serif" font-size="60" letter-spacing="-2" text-anchor="middle" stroke="none" stroke-width="0.5">
   <rect x="-9999" y="-9999" width="19999" height="19999" fill="#ffffff"/>
   <g fill="#000000">
    <g transform="translate(-100,2100)" font-size="40" text-anchor="start">
     <rect x="-20" y="-50" width="360" height="180" rx="20" ry="20" stroke-width="2" stroke="#999999" fill="none"/>
     <text transform="translate(0,0)"   x="0" y="0">Key:</text>
     <text transform="translate(30,50)"  x="0" y="0"><tspan>= 1 survivor</tspan><tspan x="245">(S)</tspan></text>
     <text transform="translate(30,100)" x="0" y="0"><tspan>= 1 victim  </tspan><tspan x="245">(V)</tspan></text>
     <use xlink:href="#man" transform="translate(10,40)"/>
     <use xlink:href="#d_m" transform="translate(10,90)"/>
    </g>
    <g font-weight="bold">
     <text transform="translate(370,0)" x="0" y="0">Children</text>
     <text transform="translate(840,0)" x="0" y="0">Women</text>
     <text transform="translate(1310,0)" x="0" y="0">Men</text>
     <text transform="translate(1710,0)" x="0" y="0">Total</text>
    </g>
    <g transform="translate(0,1300)">
     <text x="0" y="0" font-weight="bold"><tspan>Total</tspan></text>
     <text transform="translate(-135,50) scale(0.9,1)" x="0" y="0" letter-spacing="-4" text-anchor="start" font-weight="bold"><tspan>passengers</tspan></text>
     <text transform="translate(370,0)" x="0" y="0"><tspan font-weight="bold">109</tspan><tspan x="0" dy="1em" font-size="40">(S:56, V:53)</tspan></text>
     <text transform="translate(840,0)" x="0" y="0"><tspan font-weight="bold">402</tspan><tspan x="0" dy="1em" font-size="40">(S:296, V:106)</tspan></text>
     <text transform="translate(1310,0)" x="0" y="0"><tspan font-weight="bold">805</tspan><tspan x="0" dy="1em" font-size="40">(S:146, V:659)</tspan></text>
     <text transform="translate(1710,0)" x="0" y="0"><tspan font-weight="bold">1316</tspan><tspan x="0" dy="1em" font-size="40">(S:498, V:818)</tspan></text>
    </g>
    <g transform="translate(0,2400)">
     <text x="0" y="0" font-weight="bold"><tspan>Total</tspan></text>
     <text transform="translate(370,0)" x="0" y="0"><tspan font-weight="bold">109</tspan><tspan x="0" dy="1em" font-size="40">(S:56, V:53)</tspan></text>
     <text transform="translate(840,0)" x="0" y="0"><tspan font-weight="bold">425</tspan><tspan x="0" dy="1em" font-size="40">(S:316, V:109)</tspan></text>
     <text transform="translate(1310,0)" x="0" y="0"><tspan font-weight="bold">1690</tspan><tspan x="0" dy="1em" font-size="40">(S:338, V:1352)</tspan></text>
     <text transform="translate(1710,0)" x="0" y="0"><tspan font-weight="bold">2224</tspan><tspan x="0" dy="1em" font-size="40">(S:710, V:1514)</tspan></text>
    </g>
   </g>

   <g id="class_1" transform="translate(0,150)" fill="#ffcc00" stroke="#996600">
    <g transform="translate(0,-60)" stroke="none" fill="#000000">
     <text x="0" y="0" font-weight="bold" ><tspan>First</tspan><tspan x="0" dy="1em">class</tspan></text>
     <text transform="translate(370,0)" x="0" y="0"><tspan>6</tspan><tspan font-size="40" x="0" dy="40">(S:5, V:1)</tspan></text>
     <text transform="translate(840,0)" x="0" y="0"><tspan>144</tspan><tspan font-size="40" x="0" dy="40">(S:140, V:4)</tspan></text>
     <text transform="translate(1310,0)" x="0" y="0"><tspan>175</tspan><tspan font-size="40" x="0" dy="40">(S:57, V:118)</tspan></text>
     <text transform="translate(1710,0)" x="0" y="0"><tspan font-weight="bold">325</tspan><tspan x="0" dy="1em" font-size="40">(S:202, V:123)</tspan></text>
    </g>
    <g transform="translate(370,0)">
     <use xlink:href="#s_c_5"   transform="translate(0,     0)"/>
     <use xlink:href="#d_c_1"   transform="translate(0,    0)"/>
    </g>
    <g transform="translate(840,0)">
     <use xlink:href="#s_w_100" transform="translate(0,     0)"/>
     <use xlink:href="#s_w_20"  transform="translate(0,   110)"/>
     <use xlink:href="#s_w_20"  transform="translate(0,   130)"/>
     <use xlink:href="#d_w_1"   transform="translate(0,    0)"/>
     <use xlink:href="#d_w_1"   transform="translate(10,   0)"/>
     <use xlink:href="#d_w_1"   transform="translate(20,   0)"/>
     <use xlink:href="#d_w_1"   transform="translate(30,   0)"/>
    </g>
    <g transform="translate(1310,0)">
     <use xlink:href="#s_m_20"  transform="translate(0,     0)"/>
     <use xlink:href="#s_m_20"  transform="translate(0,    20)"/>
     <use xlink:href="#s_m_5"   transform="translate(0,    40)"/>
     <use xlink:href="#s_m_5"   transform="translate(-55,  40)"/>
     <use xlink:href="#s_m_5"   transform="translate(-110, 40)"/>
     <use xlink:href="#s_m_1"   transform="translate(-165, 40)"/>
     <use xlink:href="#s_m_1"   transform="translate(-175, 40)"/>
     <use xlink:href="#d_m_100" transform="translate(0,    0)"/>
     <use xlink:href="#d_m_5"   transform="translate(0,  110)"/>
     <use xlink:href="#d_m_5"   transform="translate(55, 110)"/>
     <use xlink:href="#d_m_5"   transform="translate(110,110)"/>
     <use xlink:href="#d_m_1"   transform="translate(165,110)"/>
     <use xlink:href="#d_m_1"   transform="translate(175,110)"/>
     <use xlink:href="#d_m_1"   transform="translate(185,110)"/>
    </g>
   </g>

   <g id="class_2" transform="translate(0,450)" fill="#999999" stroke="#666666">
    <g transform="translate(0,-60)" stroke="none" fill="#000000">
     <text x="0" y="0" font-weight="bold" ><tspan>Second</tspan><tspan x="0" dy="1em">class</tspan></text>
     <text transform="translate(370,0)" x="0" y="0"><tspan>24</tspan><tspan font-size="40" x="0" dy="40">(S:24, V:0)</tspan></text>
     <text transform="translate(840,0)" x="0" y="0"><tspan>93</tspan><tspan font-size="40" x="0" dy="40">(S:80, V:13)</tspan></text>
     <text transform="translate(1310,0)" x="0" y="0"><tspan>168</tspan><tspan font-size="40" x="0" dy="40">(S:14, V:154)</tspan></text>
     <text transform="translate(1710,0)" x="0" y="0"><tspan font-weight="bold">285</tspan><tspan x="0" dy="1em" font-size="40">(S:118, V:167)</tspan></text>
    </g>
    <g transform="translate(370,0)">
     <use xlink:href="#s_c_20"  transform="translate(0,     0)"/>
     <use xlink:href="#s_c_1"   transform="translate(0,    20)"/>
     <use xlink:href="#s_c_1"   transform="translate(-10,  20)"/>
     <use xlink:href="#s_c_1"   transform="translate(-20,  20)"/>
     <use xlink:href="#s_c_1"   transform="translate(-30,  20)"/>
    </g>
    <g transform="translate(840,0)">
     <use xlink:href="#s_w_20"  transform="translate(0,     0)"/>
     <use xlink:href="#s_w_20"  transform="translate(0,    20)"/>
     <use xlink:href="#s_w_20"  transform="translate(0,    40)"/>
     <use xlink:href="#s_w_20"  transform="translate(0,    60)"/>
     <use xlink:href="#d_w_5"   transform="translate(0,    0)"/>
     <use xlink:href="#d_w_5"   transform="translate(55,   0)"/>
     <use xlink:href="#d_w_1"   transform="translate(110,  0)"/>
     <use xlink:href="#d_w_1"   transform="translate(120,  0)"/>
     <use xlink:href="#d_w_1"   transform="translate(130,  0)"/>
    </g>
    <g transform="translate(1310,0)">
     <use xlink:href="#s_m_5"   transform="translate(0,     0)"/>
     <use xlink:href="#s_m_5"   transform="translate(-55,   0)"/>
     <use xlink:href="#s_m_1"   transform="translate(-110,  0)"/>
     <use xlink:href="#s_m_1"   transform="translate(-120,  0)"/>
     <use xlink:href="#s_m_1"   transform="translate(-130,  0)"/>
     <use xlink:href="#s_m_1"   transform="translate(-140,  0)"/>
     <use xlink:href="#d_m_100" transform="translate(0,    0)"/>
     <use xlink:href="#d_m_20"  transform="translate(0,  110)"/>
     <use xlink:href="#d_m_20"  transform="translate(0,  130)"/>
     <use xlink:href="#d_m_5"   transform="translate(0,  150)"/>
     <use xlink:href="#d_m_5"   transform="translate(55, 150)"/>
     <use xlink:href="#d_m_1"   transform="translate(110,150)"/>
     <use xlink:href="#d_m_1"   transform="translate(120,150)"/>
     <use xlink:href="#d_m_1"   transform="translate(130,150)"/>
     <use xlink:href="#d_m_1"   transform="translate(140,150)"/>
    </g>
   </g>

   <g id="class_3" transform="translate(0,770)" fill="#996600" stroke="#cc3300">
    <g transform="translate(0,-60)" stroke="none" fill="#000000">
     <text x="0" y="0" font-weight="bold" ><tspan>Third</tspan><tspan x="0" dy="1em">class</tspan></text>
     <text transform="translate(370,0)" x="0" y="0"><tspan>79</tspan><tspan font-size="40" x="0" dy="40">(S:27, V:52)</tspan></text>
     <text transform="translate(840,0)" x="0" y="0"><tspan>165</tspan><tspan font-size="40" x="0" dy="40">(S:76, V:89)</tspan></text>
     <text transform="translate(1310,0)" x="0" y="0"><tspan>462</tspan><tspan font-size="40" x="0" dy="40">(S:75, V:387)</tspan></text>
     <text transform="translate(1710,0)" x="0" y="0"><tspan font-weight="bold">706</tspan><tspan x="0" dy="1em" font-size="40">(S:178, V:528)</tspan></text>
    </g>
    <g transform="translate(370,0)">
     <use xlink:href="#s_c_20"  transform="translate(0,     0)"/>
     <use xlink:href="#s_c_5"   transform="translate(0,    20)"/>
     <use xlink:href="#s_c_1"   transform="translate(-55,  20)"/>
     <use xlink:href="#s_c_1"   transform="translate(-65,  20)"/>
     <use xlink:href="#d_c_20"  transform="translate(0,    0)"/>
     <use xlink:href="#d_c_20"  transform="translate(0,   20)"/>
     <use xlink:href="#d_c_5"   transform="translate(0,   40)"/>
     <use xlink:href="#d_c_5"   transform="translate(55,  40)"/>
     <use xlink:href="#d_c_1"   transform="translate(110, 40)"/>
     <use xlink:href="#d_c_1"   transform="translate(120, 40)"/>
    </g>
    <g transform="translate(840,0)">
     <use xlink:href="#s_w_20"  transform="translate(0,     0)"/>
     <use xlink:href="#s_w_20"  transform="translate(0,    20)"/>
     <use xlink:href="#s_w_20"  transform="translate(0,    40)"/>
     <use xlink:href="#s_w_5"   transform="translate(0,    60)"/>
     <use xlink:href="#s_w_5"   transform="translate(-55,  60)"/>
     <use xlink:href="#s_w_5"   transform="translate(-110, 60)"/>
     <use xlink:href="#s_w_1"   transform="translate(-165, 60)"/>
     <use xlink:href="#d_w_20"  transform="translate(0,    0)"/>
     <use xlink:href="#d_w_20"  transform="translate(0,   20)"/>
     <use xlink:href="#d_w_20"  transform="translate(0,   40)"/>
     <use xlink:href="#d_w_20"  transform="translate(0,   60)"/>
     <use xlink:href="#d_w_5"   transform="translate(0,   80)"/>
     <use xlink:href="#d_w_1"   transform="translate(55, 80)"/>
     <use xlink:href="#d_w_1"   transform="translate(65, 80)"/>
     <use xlink:href="#d_w_1"   transform="translate(75, 80)"/>
     <use xlink:href="#d_w_1"   transform="translate(85, 80)"/>
    </g>
    <g transform="translate(1310,0)">
     <use xlink:href="#s_m_20"  transform="translate(0,     0)"/>
     <use xlink:href="#s_m_20"  transform="translate(0,    20)"/>
     <use xlink:href="#s_m_20"  transform="translate(0,    40)"/>
     <use xlink:href="#s_m_5"   transform="translate(0,    60)"/>
     <use xlink:href="#s_m_5"   transform="translate(-55,  60)"/>
     <use xlink:href="#s_m_5"   transform="translate(-110, 60)"/>
     <use xlink:href="#d_m_100" transform="translate(0,    0)"/>
     <use xlink:href="#d_m_100" transform="translate(0,  110)"/>
     <use xlink:href="#d_m_100" transform="translate(0,  220)"/>
     <use xlink:href="#d_m_20"  transform="translate(0,  330)"/>
     <use xlink:href="#d_m_20"  transform="translate(0,  350)"/>
     <use xlink:href="#d_m_20"  transform="translate(0,  370)"/>
     <use xlink:href="#d_m_20"  transform="translate(0,  390)"/>
     <use xlink:href="#d_m_5"   transform="translate(0,  410)"/>
     <use xlink:href="#d_m_1"   transform="translate(55, 410)"/>
     <use xlink:href="#d_m_1"   transform="translate(65, 410)"/>
    </g>
   </g>

   <g id="crew" transform="translate(0,1550)" fill="#0066cc" stroke="#006699">
    <g transform="translate(0,-60)" stroke="none" fill="#000000">
     <text x="0" y="0" font-weight="bold" ><tspan>Crew</tspan><tspan x="0" dy="1em" font-size="40"></tspan></text>
     <text transform="translate(370,0)" x="0" y="0">none</text>
     <text transform="translate(840,0)" x="0" y="0"><tspan>23</tspan><tspan font-size="40" x="0" dy="40">(S:20, V:3)</tspan></text>
     <text transform="translate(1310,0)" x="0" y="0"><tspan>885</tspan><tspan font-size="40" x="0" dy="40">(S:192, V:693)</tspan></text>
     <text transform="translate(1710,0)" x="0" y="0"><tspan font-weight="bold">908</tspan><tspan x="0" dy="1em" font-size="40">(S:212, V:696)</tspan></text>
    </g>
    <g transform="translate(840,0)">
     <use xlink:href="#s_w_20"  transform="translate(0,     0)"/>
     <use xlink:href="#d_w_1"   transform="translate(0,     0)"/>
     <use xlink:href="#d_w_1"   transform="translate(10,    0)"/>
     <use xlink:href="#d_w_1"   transform="translate(20,    0)"/>
    </g>
    <g transform="translate(1310,0)">
     <use xlink:href="#s_m_100" transform="translate(0,     0)"/>
     <use xlink:href="#s_m_20"  transform="translate(0,   110)"/>
     <use xlink:href="#s_m_20"  transform="translate(0,   130)"/>
     <use xlink:href="#s_m_20"  transform="translate(0,   150)"/>
     <use xlink:href="#s_m_20"  transform="translate(0,   170)"/>
     <use xlink:href="#s_m_5"   transform="translate(0,   190)"/>
     <use xlink:href="#s_m_5"   transform="translate(-55, 190)"/>
     <use xlink:href="#s_m_1"   transform="translate(-110,190)"/>
     <use xlink:href="#s_m_1"   transform="translate(-120,190)"/>
     <use xlink:href="#d_m_100" transform="translate(0,    0)"/>
     <use xlink:href="#d_m_100" transform="translate(0,  110)"/>
     <use xlink:href="#d_m_100" transform="translate(0,  220)"/>
     <use xlink:href="#d_m_100" transform="translate(0,  330)"/>
     <use xlink:href="#d_m_100" transform="translate(0,  440)"/>
     <use xlink:href="#d_m_100" transform="translate(0,  550)"/>
     <use xlink:href="#d_m_20"  transform="translate(0,  660)"/>
     <use xlink:href="#d_m_20"  transform="translate(0,  680)"/>
     <use xlink:href="#d_m_20"  transform="translate(0,  700)"/>
     <use xlink:href="#d_m_20"  transform="translate(0,  720)"/>
     <use xlink:href="#d_m_5"   transform="translate(0,  740)"/>
     <use xlink:href="#d_m_5"   transform="translate(55, 740)"/>
     <use xlink:href="#d_m_5"   transform="translate(110,740)"/>
     <use xlink:href="#d_m_1"   transform="translate(165,740)"/>
     <use xlink:href="#d_m_1"   transform="translate(175,740)"/>
     <use xlink:href="#d_m_1"   transform="translate(185,740)"/>
    </g>
   </g>
  </g>
 </defs>
 <use xlink:href="#main" transform="scale(0.9375,1)"/>
</svg>
